<?xml version="1.0" encoding="utf-8"?>
<!-- Generator: Adobe Illustrator 23.0.1, SVG Export Plug-In . SVG Version: 6.00 Build 0)  -->
<svg version="1.1" id="Layer_1" xmlns="http://www.w3.org/2000/svg" xmlns:xlink="http://www.w3.org/1999/xlink" x="0px" y="0px"
	 viewBox="0 0 70 70" style="enable-background:new 0 0 70 70;" xml:space="preserve">
<path style="fill:#6E7A89;" d="M13.1,25h15.4c0.7,0,1.4,0.4,1.7,1.1l1.2,3.5h18.5v-8.1c0-1.1-0.9-1.9-1.9-1.9H21.4l-1.2-3.5c-0.3-0.7-1-1.1-1.7-1.1H5.6
	c-2.1,0-3.9,1.7-3.9,3.9V54c0,1.6,1.3,2.9,2.9,2.9h4.6v-28C9.2,26.8,10.9,25,13.1,25z"/>
<g>
	<path style="fill:#6E7A89;" d="M54.9,34.3H27.7l-1.1-3.2C26.4,30.4,25.7,30,25,30h-8.7c-0.6,0-1.2,0.3-1.5,0.9c-0.6,1-0.6,1.1-0.6,2.7v30.2
		c0,1.5,1.2,2.7,2.7,2.7h38c1,0,1.8-0.8,1.8-1.8V36.1C56.7,35.1,55.9,34.3,54.9,34.3z"/>
</g>
<path style="fill:#6E7A89;" d="M52.1,17.8L52.1,17.8c-0.8-0.4-1-1.4-0.6-2.2l3.2-5.5c0.4-0.8,1.4-1,2.2-0.6l0,0c0.8,0.4,1,1.4,0.6,2.2l-3.2,5.5
	C53.8,18,52.8,18.2,52.1,17.8z"/>
<path style="fill:#6E7A89;" d="M57.5,23.8L57.5,23.8c-0.3-0.8,0.1-1.7,0.9-2.1l5.9-2.3c0.8-0.3,1.7,0.1,2.1,0.9v0c0.3,0.8-0.1,1.7-0.9,2.1l-5.9,2.3
	C58.8,25,57.8,24.6,57.5,23.8z"/>
<path style="fill:#6E7A89;" d="M59.9,32.3L59.9,32.3c-0.1-0.9,0.6-1.6,1.4-1.7l6.3-0.6c0.9-0.1,1.6,0.6,1.7,1.4v0c0.1,0.9-0.6,1.6-1.4,1.7l-6.3,0.6
	C60.8,33.9,60,33.2,59.9,32.3z"/>
<path style="fill:#6E7A89;" d="M44.1,13.6L44.1,13.6c-0.9-0.1-1.4-1-1.3-1.8l1.1-6.2c0.1-0.9,1-1.4,1.8-1.3l0,0c0.9,0.1,1.4,1,1.3,1.8L46,12.3
	C45.8,13.2,45,13.8,44.1,13.6z"/>
<path style="fill:#6E7A89;" d="M34,13.6L34,13.6c-0.8,0.2-1.7-0.4-1.9-1.2l-1.4-6.2c-0.2-0.8,0.4-1.7,1.2-1.9l0,0c0.8-0.2,1.7,0.4,1.9,1.2l1.4,6.2
	C35.4,12.5,34.8,13.4,34,13.6z"/>
</svg>
