<svg version="1.1" id="Layer_1" xmlns="http://www.w3.org/2000/svg" x="0" y="0" viewBox="0 0 460 100" xml:space="preserve"><style>.st1{fill:#54476e}.st1,.st2,.st4{fill-rule:evenodd;clip-rule:evenodd}.st2{fill:#af6bd6}.st4{fill:#fff}.st5{fill:#ffb03f}.st6{fill:#ed9140}</style><path d="m137.5 69.4-15.9-17.9c10-2 13.3-9.3 13.3-16.5 0-9.1-6.5-17.4-18.9-17.4H91V70h9.9V52.5h9.5L125.7 70h11.8zM116 26.7c6.2 0 9 4.2 9 8.4s-2.7 8.4-9 8.4h-15.1V26.7zm50.4-10.2c-18.1 0-27 13.9-27 27.7s8.6 27.1 27 27.1 26.8-13.6 26.9-27.2c.1-13.7-8.9-27.6-26.9-27.6m0 9c12.4 0 17.3 9.9 17.2 18.7-.1 8.6-4.8 17.9-17.2 17.9s-17-9.2-17.2-17.8c-.3-8.8 4.8-18.8 17.2-18.8m58-9c-18.2 0-27 13.9-27 27.7s8.5 27.1 27 27.1c18.4 0 26.8-13.6 26.9-27.2.2-13.7-8.8-27.6-26.9-27.6m0 9c12.4 0 17.3 9.9 17.2 18.7-.1 8.6-4.8 17.9-17.2 17.9s-17-9.2-17.2-17.8c-.3-8.8 4.8-18.8 17.2-18.8m101.9-9c-18.1 0-27 13.9-27 27.7s8.6 27.1 27 27.1c18.5 0 26.8-13.6 26.9-27.2.1-13.7-8.9-27.6-26.9-27.6m0 9c12.4 0 17.3 9.9 17.2 18.7-.1 8.6-4.8 17.9-17.2 17.9s-17-9.2-17.2-17.8c-.3-8.8 4.8-18.8 17.2-18.8m68.8-7.9v30.1c0 9-4.7 14.5-12.8 14.5-8.2 0-13.6-5-13.6-14.5V17.6h-9.8v30.1c0 15.8 10.7 23.5 23.3 23.5 13.2 0 22.7-8 22.7-23.5V17.6zM256.3 70h9.9V46.6L288.4 70h12.2v-.6l-25.3-26.5 23.3-25.2v-.3h-12.3L266.2 40V17.5h-9.9zm170.3 0h9.9V26.5h16.6v-9h-43.2v9h16.7z" style="fill:#54476e"/><path class="st1" d="M53.5 6.7C52.8 7.9 52 9 51 9.9c-2.1 1.7-4.8 1.9-7.4 1.7h-.2c-8.6 0-15.6 7-15.6 15.6v6.9l-.3.3c-3.9 3.4-5.4 8.2-5.4 13.2 0 5.6 2.1 11.6 5.2 16.6h-9.8c-3 0-5.2-1.7-6-4.3H6v.7c0 6.7 5.4 9.7 11.3 9.7h12.5l-2.6 9.5c-.7 2.4-.7 5.1.5 7.4.9 1.7 2.4 3 4.3 3.4 1.3.3 2.7.2 4-.3l.8-.3.4.7.6.9c1.4 1.8 3.5 2.9 5.8 2.9s4.4-1.1 5.8-2.9l.6-.9.4-.7.8.3c1.2.5 2.6.6 3.9.3 1.9-.5 3.4-1.7 4.3-3.4 1.2-2.3 1.1-5 .4-7.4l-2.6-9.5h12.5c5.9 0 11.3-3 11.3-9.7V60h-5.6c-.8 2.6-3 4.3-6 4.3h-9.8c3.1-5 5.2-11 5.2-16.6 0-5.1-1.5-9.8-5.4-13.2l-.1-.1 7.6-4.9c-1.2-3.4-6.4-7.9-9.2-9.4q-.6-1.35-1.5-2.4l-.4-.4.2-.5c1.1-2.9-.8-7.3-2.5-10.1"/><path class="st2" d="m54.5 70.4 2.8 10.2c2.2 8.1-5.6 10.8-8.5 3.9.5 10.3-11.1 10.3-10.6 0-2.8 6.9-10.8 4.2-8.6-3.9l2.8-10.2h1.5c3.3 0 5.9 1.8 6.7 5.1h5.7c.8-3.3 3.3-5.1 6.7-5.1zm-9.7-50c2.6 0 4.7 2.1 4.7 4.7s-2.1 4.7-4.7 4.7-4.7-2.1-4.7-4.7 2.1-4.7 4.7-4.7m11.8 15c3.6 2.5 5.8 6.4 5.8 12.3 0 4.5-1.5 9.4-4 13.7-.6-.4-1.5-.4-2.7-.6-.7-.1-1.3-.8-2.5-.8-1.3 0-1.9.7-2.6.8-1.4.2-2.3.1-2.9.7-.4.4-.7 1.2-.8 1.8 0 .3-.1.7-.1 1.1v1.1q-1.65.9-2.7 3l-.6 1-.6-1c-.8-1.5-1.7-2.4-2.7-3.1v-1.1c0-.4 0-.8-.1-1.1-.1-.6-.3-1.4-.8-1.8-.6-.6-1.5-.5-2.9-.7-.7-.1-1.3-.8-2.6-.8s-1.8.7-2.5.8c-1.2.2-2.1.2-2.7.6-2.4-4.3-4-9.2-4-13.7 0-5.8 2.2-9.8 5.8-12.3l3.3-2.1c.8-.5.9-1.1-.4-1l-3 .3v-5.4c0-7.2 5.9-13.1 13.1-13.1 0 0 8.2.4 9.8-3.2 1.5 2.9.7 5.3-.8 6.7 1.2.5 2.2 1.8 3 3.3-3 4.3-3.1 11 1.2 14.6"/><path d="M28.6 61.4c-2.4-4.3-4-9.2-4-13.7 0-5.8 2.2-9.8 5.8-12.3l3.3-2.1c.8-.5.9-1.1-.4-1l-3 .3v-5.4c0-4.6 2.4-8.6 6-11-4.8 5.6-2 14.9 2.8 17.3-11.7 7.2-8.1 17.4-2.8 27.2-.7-.1-1.3-.7-2.5-.7-1.3 0-1.8.7-2.5.8-1.2.2-2.1.2-2.7.6M53.2 11c1.5 2.9.7 5.3-.8 6.7-.8-.3-1.2-.5-1.9-.6-.2 0-.3-.3 0-.5 1.7-1.2 2.8-2.8 2.7-5.6m-9.3 81.2c-2.9.2-5.9-2.3-5.7-7.7-2.8 6.9-10.8 4.2-8.6-3.9l2.8-10.2h1.5c3.3 0 5.9 1.8 6.7 5.1h5.6v.1c-2.7 5.5-2.3 10.7-2.3 16.6" style="fill-rule:evenodd;clip-rule:evenodd;fill:#8c55b7"/><path class="st4" d="M43.5 39.2c6.6 0 12 5 12 13.5 0 2.5-.6 5.1-1.6 7.4-.3-.1-.5-.1-.8-.1-1.3 0-1.9.7-2.6.8-1.4.2-2.3.1-2.9.7-.4.4-.7 1.2-.8 1.8 0 .3-.1.7-.1 1.1v1.1q-1.65.9-2.7 3l-.6 1-.6-1c-.8-1.5-1.7-2.4-2.7-3.1v-1.1c0-.4 0-.8-.1-1.1-.1-.6-.3-1.4-.8-1.8-.6-.6-1.5-.5-2.9-.7-.7-.1-1.3-.8-2.6-.8-.3 0-.5 0-.7.1-1-2.3-1.6-4.9-1.6-7.4.1-8.4 5.4-13.4 12.1-13.4"/><path class="st5" d="M60.9 25c-1.3-1.2-2.8-2.2-4.2-3-1.2 2.1-1.6 4.1-1.5 5.8.1 2.1.8 3.9 1.7 5l7.2-4.2c-.9-1.2-2-2.5-3.2-3.6"/><path class="st6" d="M55.4 29.8c.3 1.3.9 2.3 1.5 3.1l7.2-4.2c-2.8.8-5.8 1.2-8.7 1.1"/><path d="M62.5 27.7c-1.3-1.7-2.9-2.9-5-4.2-.4.5-.6 1.1-.7 1.8q2.85 1.05 5.7 2.4" style="fill:#ffce92"/><path class="st4" d="M46.3 22c.8 0 1.5.7 1.5 1.5s-.7 1.5-1.5 1.5-1.5-.7-1.5-1.5c-.1-.9.6-1.5 1.5-1.5"/><path class="st6" d="M34.6 62.4c-.2-.2-.5-.3-.8-.3s-.5.1-.7.3-.3.4-.3.7v4.8c0 .3.1.5.3.7s.5.3.7.3c.3 0 .5-.1.7-.3s.3-.4.3-.7v-4.8c.1-.3 0-.6-.2-.7m-3.9 0q-.15 0 0 0c-.4 0-.7.2-.9.4s-.4.5-.4.8-.1.6-.1.9v2.7c0 .3.2.6.4.8s.5.4.8.4h.1q.3 0 .6-.3c.2-.2.3-.4.3-.7v-4.1c0-.3-.1-.5-.3-.7-.1-.1-.3-.2-.5-.2m7.2.5c-.2-.2-.5-.4-.8-.4H37q-.3 0-.6.3c-.2.2-.3.4-.3.7v4.3c0 .3.1.5.3.7.1.2.3.2.5.3h.1c.3 0 .6-.2.8-.4s.4-.6.5-.9c0-.3.1-.6.1-.9v-1.8c0-.3 0-.6-.1-.9 0-.5-.2-.8-.4-1"/><path class="st5" d="M35 65.8c-.3.5-.7.8-1.1.8s-.8-.3-1.1-.9v-2.6c0-.3.1-.5.3-.7s.5-.3.7-.3c.3 0 .6.1.8.3s.3.4.3.7v2.4zm-3.5-.5c-.3.5-.7.7-1.1.7-.5 0-.9-.4-1.2-.9v-.6c0-.3 0-.6.1-.9 0-.3.2-.6.4-.8s.5-.4.8-.4h.1q.3 0 .6.3c.2.2.3.4.3.7zm6.4-2.4c-.2-.2-.5-.4-.8-.4H37q-.3 0-.6.3c-.2.2-.3.4-.3.7v1.7c.3.5.7.9 1.1.9s.8-.3 1.1-.8v-.6c0-.3 0-.6-.1-.9.1-.4-.1-.7-.3-.9"/><path class="st6" d="M52.3 62.4c.2-.2.5-.3.8-.3s.5.1.7.3.3.4.3.7v4.8c0 .3-.1.5-.3.7s-.5.3-.7.3c-.3 0-.5-.1-.7-.3-.3-.1-.4-.4-.4-.6v-4.8c0-.4.1-.7.3-.8m4 0c.4 0 .7.2.9.4s.4.5.4.8.1.6.1.9v2.7c0 .3-.2.6-.4.8s-.5.4-.8.4h-.1q-.3 0-.6-.3c-.2-.2-.3-.4-.3-.7v-4.1c0-.3.1-.5.3-.7 0-.1.2-.2.5-.2m-7.3.5c.2-.2.5-.4.8-.4h.1q.3 0 .6.3c.2.2.3.4.3.7v4.3c0 .3-.1.5-.3.7-.1.2-.3.2-.5.3h-.1c-.3 0-.6-.2-.8-.4s-.4-.6-.5-.9c0-.3-.1-.6-.1-.9v-1.8c0-.3 0-.6.1-.9 0-.5.2-.8.4-1"/><path class="st5" d="M52 65.8c.3.5.7.8 1.1.8s.8-.3 1.1-.9v-2.6c0-.3-.1-.5-.3-.7s-.5-.3-.7-.3c-.3 0-.6.1-.8.3s-.3.4-.3.7v2.4zm3.4-.5c.3.5.7.7 1.1.7.5 0 .9-.4 1.2-.9v-.6c0-.3 0-.6-.1-.9 0-.3-.2-.6-.4-.8s-.5-.4-.8-.4h-.1q-.3 0-.6.3c-.2.2-.3.4-.3.7zM49 62.9c.2-.2.5-.4.8-.4h.1q.3 0 .6.3c.2.2.3.4.3.7v1.7c-.3.5-.7.9-1.1.9s-.8-.3-1.1-.8v-.6c0-.3 0-.6.1-.9-.1-.4.1-.7.3-.9"/><circle class="st2" cx="45.3" cy="24.8" r="5.4"/><circle class="st1" cx="44.9" cy="24.9" r="3.9"/><circle class="st4" cx="46.2" cy="23.4" r="1.3"/></svg>
